<mxfile host="app.diagrams.net" agent="Mozilla/5.0 (Windows NT 10.0; Win64; x64) AppleWebKit/537.36 (KHTML, like Gecko) Chrome/135.0.0.0 Safari/537.36" version="26.2.12">
  <diagram name="Page-1" id="0783ab3e-0a74-02c8-0abd-f7b4e66b4bec">
    <mxGraphModel grid="1" page="1" gridSize="10" guides="1" tooltips="1" connect="1" arrows="1" fold="1" pageScale="1" pageWidth="850" pageHeight="1100" background="none" math="0" shadow="0">
      <root>
        <mxCell id="0" />
        <mxCell id="1" parent="0" />
        <mxCell id="7HiSatQ0bfyucuQd2wp2-4" value="" style="ellipse;html=1;shape=startState;fillColor=#000000;strokeColor=#ff0000;" vertex="1" parent="1">
          <mxGeometry x="400" y="40" width="30" height="30" as="geometry" />
        </mxCell>
        <mxCell id="7HiSatQ0bfyucuQd2wp2-5" value="" style="edgeStyle=orthogonalEdgeStyle;html=1;verticalAlign=bottom;endArrow=open;endSize=8;strokeColor=#ff0000;rounded=0;" edge="1" parent="1" source="7HiSatQ0bfyucuQd2wp2-4">
          <mxGeometry relative="1" as="geometry">
            <mxPoint x="415" y="130" as="targetPoint" />
          </mxGeometry>
        </mxCell>
        <mxCell id="7HiSatQ0bfyucuQd2wp2-6" value="Within 300ft of selected altitude" style="rounded=1;whiteSpace=wrap;html=1;" vertex="1" parent="1">
          <mxGeometry x="355" y="130" width="120" height="60" as="geometry" />
        </mxCell>
        <mxCell id="7HiSatQ0bfyucuQd2wp2-7" value="" style="endArrow=classic;html=1;rounded=0;exitX=0.25;exitY=1;exitDx=0;exitDy=0;" edge="1" parent="1" source="7HiSatQ0bfyucuQd2wp2-6">
          <mxGeometry width="50" height="50" relative="1" as="geometry">
            <mxPoint x="400" y="330" as="sourcePoint" />
            <mxPoint x="280" y="280" as="targetPoint" />
            <Array as="points">
              <mxPoint x="385" y="240" />
              <mxPoint x="280" y="240" />
            </Array>
          </mxGeometry>
        </mxCell>
        <mxCell id="7HiSatQ0bfyucuQd2wp2-8" value="Within 50ft of selected altitude" style="rounded=1;whiteSpace=wrap;html=1;" vertex="1" parent="1">
          <mxGeometry x="220" y="280" width="120" height="60" as="geometry" />
        </mxCell>
        <mxCell id="7HiSatQ0bfyucuQd2wp2-9" value="" style="endArrow=classic;html=1;rounded=0;exitX=0.5;exitY=1;exitDx=0;exitDy=0;" edge="1" parent="1" source="7HiSatQ0bfyucuQd2wp2-8">
          <mxGeometry width="50" height="50" relative="1" as="geometry">
            <mxPoint x="400" y="430" as="sourcePoint" />
            <mxPoint x="280" y="440" as="targetPoint" />
          </mxGeometry>
        </mxCell>
        <mxCell id="7HiSatQ0bfyucuQd2wp2-23" value="ALT Flash Flag True" style="edgeLabel;html=1;align=center;verticalAlign=middle;resizable=0;points=[];" connectable="0" vertex="1" parent="7HiSatQ0bfyucuQd2wp2-9">
          <mxGeometry x="-0.02" relative="1" as="geometry">
            <mxPoint as="offset" />
          </mxGeometry>
        </mxCell>
        <mxCell id="7HiSatQ0bfyucuQd2wp2-10" value="Not within 50ft of selected altitude" style="rounded=1;whiteSpace=wrap;html=1;" vertex="1" parent="1">
          <mxGeometry x="490" y="280" width="120" height="60" as="geometry" />
        </mxCell>
        <mxCell id="7HiSatQ0bfyucuQd2wp2-12" value="" style="endArrow=classic;html=1;rounded=0;exitX=0.25;exitY=1;exitDx=0;exitDy=0;" edge="1" parent="1">
          <mxGeometry width="50" height="50" relative="1" as="geometry">
            <mxPoint x="440" y="190" as="sourcePoint" />
            <mxPoint x="545" y="280" as="targetPoint" />
            <Array as="points">
              <mxPoint x="440" y="240" />
              <mxPoint x="545" y="240" />
            </Array>
          </mxGeometry>
        </mxCell>
        <mxCell id="7HiSatQ0bfyucuQd2wp2-13" value="ALTS Flash flag True" style="endArrow=classic;html=1;rounded=0;entryX=0.5;entryY=0;entryDx=0;entryDy=0;exitX=0.5;exitY=1;exitDx=0;exitDy=0;" edge="1" parent="1" source="7HiSatQ0bfyucuQd2wp2-10" target="7HiSatQ0bfyucuQd2wp2-15">
          <mxGeometry width="50" height="50" relative="1" as="geometry">
            <mxPoint x="580" y="380" as="sourcePoint" />
            <mxPoint x="430" y="380" as="targetPoint" />
          </mxGeometry>
        </mxCell>
        <mxCell id="7HiSatQ0bfyucuQd2wp2-14" value="Flash &quot;ALT&quot; for 10 seconds" style="rounded=1;whiteSpace=wrap;html=1;" vertex="1" parent="1">
          <mxGeometry x="220" y="440" width="120" height="60" as="geometry" />
        </mxCell>
        <mxCell id="7HiSatQ0bfyucuQd2wp2-15" value="Flash &quot;ALTS&quot; for 10 seconds" style="rounded=1;whiteSpace=wrap;html=1;" vertex="1" parent="1">
          <mxGeometry x="490" y="440" width="120" height="60" as="geometry" />
        </mxCell>
        <mxCell id="7HiSatQ0bfyucuQd2wp2-17" value="Alts Flash Flag False" style="endArrow=classic;html=1;rounded=0;exitX=0;exitY=0.5;exitDx=0;exitDy=0;entryX=1;entryY=0.5;entryDx=0;entryDy=0;" edge="1" parent="1" source="7HiSatQ0bfyucuQd2wp2-15" target="7HiSatQ0bfyucuQd2wp2-8">
          <mxGeometry width="50" height="50" relative="1" as="geometry">
            <mxPoint x="400" y="430" as="sourcePoint" />
            <mxPoint x="450" y="380" as="targetPoint" />
            <Array as="points">
              <mxPoint x="440" y="470" />
              <mxPoint x="440" y="310" />
            </Array>
          </mxGeometry>
        </mxCell>
        <mxCell id="7HiSatQ0bfyucuQd2wp2-18" value="" style="ellipse;html=1;shape=endState;fillColor=#000000;strokeColor=#ff0000;" vertex="1" parent="1">
          <mxGeometry x="400" y="640" width="30" height="30" as="geometry" />
        </mxCell>
        <mxCell id="7HiSatQ0bfyucuQd2wp2-19" value="" style="endArrow=classic;html=1;rounded=0;exitX=0.5;exitY=1;exitDx=0;exitDy=0;" edge="1" parent="1" source="7HiSatQ0bfyucuQd2wp2-14">
          <mxGeometry width="50" height="50" relative="1" as="geometry">
            <mxPoint x="400" y="430" as="sourcePoint" />
            <mxPoint x="400" y="640" as="targetPoint" />
          </mxGeometry>
        </mxCell>
        <mxCell id="7HiSatQ0bfyucuQd2wp2-25" value="ALT Flash Flag False" style="edgeLabel;html=1;align=center;verticalAlign=middle;resizable=0;points=[];" connectable="0" vertex="1" parent="7HiSatQ0bfyucuQd2wp2-19">
          <mxGeometry x="-0.065" y="-2" relative="1" as="geometry">
            <mxPoint as="offset" />
          </mxGeometry>
        </mxCell>
        <mxCell id="7HiSatQ0bfyucuQd2wp2-20" value="" style="endArrow=classic;html=1;rounded=0;exitX=0.5;exitY=1;exitDx=0;exitDy=0;" edge="1" parent="1" source="7HiSatQ0bfyucuQd2wp2-15">
          <mxGeometry width="50" height="50" relative="1" as="geometry">
            <mxPoint x="440" y="490" as="sourcePoint" />
            <mxPoint x="430" y="640" as="targetPoint" />
          </mxGeometry>
        </mxCell>
        <mxCell id="7HiSatQ0bfyucuQd2wp2-24" value="ALTS Flash Flag False" style="edgeLabel;html=1;align=center;verticalAlign=middle;resizable=0;points=[];" connectable="0" vertex="1" parent="7HiSatQ0bfyucuQd2wp2-20">
          <mxGeometry x="-0.2303" y="3" relative="1" as="geometry">
            <mxPoint as="offset" />
          </mxGeometry>
        </mxCell>
        <mxCell id="7HiSatQ0bfyucuQd2wp2-27" value="" style="endArrow=classic;html=1;rounded=0;exitX=1;exitY=0.5;exitDx=0;exitDy=0;" edge="1" parent="1" source="7HiSatQ0bfyucuQd2wp2-15">
          <mxGeometry width="50" height="50" relative="1" as="geometry">
            <mxPoint x="470" y="420" as="sourcePoint" />
            <mxPoint x="740" y="340" as="targetPoint" />
            <Array as="points">
              <mxPoint x="740" y="470" />
            </Array>
          </mxGeometry>
        </mxCell>
        <mxCell id="7HiSatQ0bfyucuQd2wp2-28" value="Selecting new altitude and IAS/VS/PIT/GA modes" style="rounded=1;whiteSpace=wrap;html=1;" vertex="1" parent="1">
          <mxGeometry x="680" y="280" width="120" height="60" as="geometry" />
        </mxCell>
        <mxCell id="7HiSatQ0bfyucuQd2wp2-29" value="" style="endArrow=classic;html=1;rounded=0;entryX=1;entryY=0.5;entryDx=0;entryDy=0;" edge="1" parent="1" target="7HiSatQ0bfyucuQd2wp2-6">
          <mxGeometry width="50" height="50" relative="1" as="geometry">
            <mxPoint x="740" y="280" as="sourcePoint" />
            <mxPoint x="740" y="170" as="targetPoint" />
            <Array as="points">
              <mxPoint x="740" y="160" />
            </Array>
          </mxGeometry>
        </mxCell>
        <mxCell id="7HiSatQ0bfyucuQd2wp2-30" value="Reset ALTS Flashed Flag" style="edgeLabel;html=1;align=center;verticalAlign=middle;resizable=0;points=[];" connectable="0" vertex="1" parent="7HiSatQ0bfyucuQd2wp2-29">
          <mxGeometry x="0.0479" relative="1" as="geometry">
            <mxPoint x="-8" as="offset" />
          </mxGeometry>
        </mxCell>
        <mxCell id="7HiSatQ0bfyucuQd2wp2-31" value="Selecting new altitude&amp;nbsp;and IAS/VS/PIT/GA modes" style="rounded=1;whiteSpace=wrap;html=1;" vertex="1" parent="1">
          <mxGeometry x="20" y="280" width="120" height="60" as="geometry" />
        </mxCell>
        <mxCell id="7HiSatQ0bfyucuQd2wp2-35" value="" style="endArrow=classic;html=1;rounded=0;exitX=0;exitY=0.5;exitDx=0;exitDy=0;entryX=0.5;entryY=1;entryDx=0;entryDy=0;" edge="1" parent="1" source="7HiSatQ0bfyucuQd2wp2-14" target="7HiSatQ0bfyucuQd2wp2-31">
          <mxGeometry width="50" height="50" relative="1" as="geometry">
            <mxPoint x="50" y="470" as="sourcePoint" />
            <mxPoint x="80" y="470" as="targetPoint" />
            <Array as="points">
              <mxPoint x="80" y="470" />
            </Array>
          </mxGeometry>
        </mxCell>
        <mxCell id="7HiSatQ0bfyucuQd2wp2-36" value="" style="endArrow=classic;html=1;rounded=0;exitX=0.5;exitY=0;exitDx=0;exitDy=0;entryX=0;entryY=0.5;entryDx=0;entryDy=0;" edge="1" parent="1" source="7HiSatQ0bfyucuQd2wp2-31" target="7HiSatQ0bfyucuQd2wp2-6">
          <mxGeometry width="50" height="50" relative="1" as="geometry">
            <mxPoint x="400" y="290" as="sourcePoint" />
            <mxPoint x="80" y="150" as="targetPoint" />
            <Array as="points">
              <mxPoint x="80" y="160" />
            </Array>
          </mxGeometry>
        </mxCell>
        <mxCell id="7HiSatQ0bfyucuQd2wp2-37" value="Reset ALT Flased Flag" style="edgeLabel;html=1;align=center;verticalAlign=middle;resizable=0;points=[];" connectable="0" vertex="1" parent="7HiSatQ0bfyucuQd2wp2-36">
          <mxGeometry x="0.2217" y="3" relative="1" as="geometry">
            <mxPoint as="offset" />
          </mxGeometry>
        </mxCell>
      </root>
    </mxGraphModel>
  </diagram>
</mxfile>
